<?xml version="1.0" encoding="UTF-8"?>
<svg width="182px" height="152px" viewBox="0 0 182 152" version="1.1" xmlns="http://www.w3.org/2000/svg" xmlns:xlink="http://www.w3.org/1999/xlink">
    <!-- Generator: Sketch 47.1 (45422) - http://www.bohemiancoding.com/sketch -->
    <title>icon-sauvc</title>
    <desc>Created with Sketch.</desc>
    <defs></defs>
    <g id="Page-1" stroke="none" stroke-width="1" fill="none" fill-rule="evenodd">
        <g id="icon-sauvc">
            <path d="M50,28 L132,28 L132,28 C159.614237,28 182,50.3857625 182,78 L182,78 L182,78 C182,105.614237 159.614237,128 132,128 L50,128 L50,128 C22.3857625,128 1.04871961e-14,105.614237 7.10542736e-15,78 L8.84015083e-15,78 L7.10542736e-15,78 C3.7236586e-15,50.3857625 22.3857625,28 50,28 Z" id="Rectangle-Copy" fill="#F8C86C"></path>
            <path d="M182,77.9789878 C182,64.5079878 176.663,52.2909878 168,43.2999878 L168,112.657988 C176.663,103.666988 182,91.4499878 182,77.9789878" id="Fill-1-Copy-2" fill="#F59A63"></path>
            <path d="M14,77.9789878 C14,64.5079878 8.663,52.2909878 0,43.2999878 L0,112.657988 C8.663,103.666988 14,91.4499878 14,77.9789878" id="Fill-1-Copy-3" fill="#F59A63" transform="translate(7.000000, 77.978988) scale(-1, 1) translate(-7.000000, -77.978988) "></path>
            <path d="M61,0 L121,0 L121,0 C126.522847,-1.01453063e-15 131,4.4771525 131,10 L131,28 L51,28 L51,10 L51,10 C51,4.4771525 55.4771525,1.01453063e-15 61,0 Z" id="Rectangle-2-Copy" fill="#F59A63"></path>
            <rect id="Rectangle-4-Copy-2" fill="#1C455D" x="148" y="112" width="20" height="40"></rect>
            <path d="M98,112 L124.346763,112 L124.346763,112 C131.238117,112 137.919367,114.372565 143.267324,118.718841 L159.609375,132 L143.267324,145.281159 L143.267324,145.281159 C137.919367,149.627435 131.238117,152 124.346763,152 L98,152 L98,152 C86.954305,152 78,143.045695 78,132 L78,132 L78,132 C78,120.954305 86.954305,112 98,112 Z" id="Rectangle-3-Copy" fill="#1C455D"></path>
        </g>
    </g>
</svg>